<svg width="139" height="28" viewBox="0 0 139 28" fill="none" xmlns="http://www.w3.org/2000/svg">
<path d="M125.083 2.41614C125.083 1.77183 125.325 1.20807 125.808 0.72484C126.291 0.241612 126.855 0 127.499 0H128.707C129.384 0 129.964 0.241612 130.447 0.72484C130.898 1.20807 131.123 1.77183 131.123 2.41614V3.62421C131.123 4.30072 131.365 4.8806 131.848 5.36382C132.331 5.81484 132.895 6.04034 133.54 6.04034H136.584C137.228 6.04034 137.792 6.28196 138.275 6.76518C138.758 7.24841 139 7.81218 139 8.45648V15.7049C139 16.3814 138.758 16.9613 138.275 17.4445C137.792 17.8955 137.228 18.121 136.584 18.121H127.499C126.855 18.121 126.291 17.8955 125.808 17.4445C125.325 16.9613 125.083 16.3814 125.083 15.7049V2.41614Z" fill="#333333"/>
<path d="M123.243 3.62421C123.243 4.26851 123.017 4.83227 122.566 5.3155C122.083 5.79873 121.503 6.04034 120.826 6.04034H113.578C112.934 6.04034 112.37 6.26585 111.887 6.71686C111.404 7.20009 111.162 7.77996 111.162 8.45648V9.66455C111.162 10.3089 111.404 10.8726 111.887 11.3558C112.37 11.8391 112.934 12.0807 113.578 12.0807H120.826C121.503 12.0807 122.083 12.3062 122.566 12.7572C123.017 13.2404 123.243 13.8203 123.243 14.4968V15.7049C123.243 16.3492 123.017 16.913 122.566 17.3962C122.083 17.8794 121.503 18.121 120.826 18.121H113.578C112.934 18.121 112.37 17.8794 111.887 17.3962C111.404 16.913 111.162 16.3492 111.162 15.7049V14.5935C111.162 13.8847 110.936 13.2888 110.485 12.8055C110.002 12.3223 109.422 12.0807 108.746 12.0807H107.538C106.893 12.0807 106.33 11.8391 105.846 11.3558C105.363 10.8726 105.122 10.3089 105.122 9.66455V8.45648C105.122 7.77996 105.363 7.20009 105.846 6.71686C106.33 6.26585 106.893 6.04034 107.538 6.04034H108.746C109.422 6.04034 110.002 5.79873 110.485 5.3155C110.936 4.83227 111.162 4.26851 111.162 3.62421V2.41614C111.162 1.73962 111.404 1.15975 111.887 0.676518C112.37 0.225506 112.934 0 113.578 0H120.826C121.503 0 122.083 0.225506 122.566 0.676518C123.017 1.15975 123.243 1.73962 123.243 2.41614V3.62421Z" fill="#333333"/>
<path d="M91.814 14.4968C91.814 13.8203 91.5885 13.2404 91.1375 12.7572C90.6542 12.3062 90.0744 12.0807 89.3978 12.0807H88.1898C87.5455 12.0807 86.9817 11.8391 86.4985 11.3558C86.0152 10.8726 85.7736 10.3089 85.7736 9.66455V8.45648C85.7736 7.77996 86.0152 7.20009 86.4985 6.71686C86.9495 6.26585 87.4971 6.04034 88.1414 6.04034H89.3978C90.0744 6.04034 90.6542 5.79873 91.1375 5.3155C91.5885 4.83227 91.814 4.26851 91.814 3.62421V2.41614C91.814 1.73962 92.0556 1.15975 92.5388 0.676518C92.9898 0.225506 93.5375 0 94.1818 0H95.4382C96.1147 0 96.6946 0.225506 97.1778 0.676518C97.6288 1.15975 97.8543 1.73962 97.8543 2.41614V9.66455C97.8543 10.3089 98.0959 10.8726 98.5792 11.3558C99.0624 11.8391 99.6262 12.0807 100.27 12.0807H101.479C102.155 12.0807 102.735 12.3062 103.218 12.7572C103.669 13.2404 103.895 13.8203 103.895 14.4968V15.7049C103.895 16.3492 103.669 16.913 103.218 17.3962C102.735 17.8794 102.155 18.121 101.479 18.121H94.2301C93.5858 18.121 93.022 17.8794 92.5388 17.3962C92.0556 16.913 91.814 16.3492 91.814 15.7049V14.4968Z" fill="#333333"/>
<path d="M74.2686 16.913C73.6243 16.913 73.0606 16.6713 72.5773 16.1881C72.0941 15.7049 71.8525 15.1411 71.8525 14.4968C71.8847 13.8203 71.6592 13.2404 71.176 12.7572C70.725 12.3062 70.1451 12.0807 69.4364 12.0807H68.2283C67.584 12.0807 67.0202 11.8391 66.537 11.3558C66.0538 10.8726 65.8121 10.3089 65.8121 9.66455V8.45648C65.8121 7.77996 66.0538 7.20009 66.537 6.71686C67.0202 6.26585 67.584 6.04034 68.2283 6.04034H69.4364C70.1129 6.04034 70.6927 5.79873 71.176 5.3155C71.627 4.83227 71.8525 4.26851 71.8525 3.62421V2.41614C71.8525 1.73962 72.0941 1.15975 72.5773 0.676518C73.0606 0.225506 73.6243 0 74.2686 0H75.4767C76.1532 0 76.7331 0.225506 77.2163 0.676518C77.6673 1.15975 77.8928 1.73962 77.8928 2.41614V3.62421C77.8928 4.26851 78.1344 4.83227 78.6177 5.3155C79.1009 5.79873 79.6647 6.04034 80.309 6.04034H81.517C82.1936 6.04034 82.7734 6.26585 83.2567 6.71686C83.7077 7.20009 83.9332 7.77996 83.9332 8.45648V19.3291C83.9332 20.0056 83.7077 20.5694 83.2567 21.0204C82.7734 21.5036 82.1936 21.7452 81.517 21.7452H80.309C79.6647 21.7452 79.1009 21.9868 78.6177 22.4701C78.1344 22.9533 77.8928 23.5171 77.8928 24.1614V25.3694C77.8928 26.046 77.6673 26.6097 77.2163 27.0607C76.7331 27.544 76.1532 27.7856 75.4767 27.7856H74.2686C73.6243 27.7856 73.0606 27.544 72.5773 27.0607C72.0941 26.6097 71.8525 26.046 71.8525 25.3694V24.1614C71.8525 23.5171 72.0941 22.9533 72.5773 22.4701C73.0606 21.9868 73.6243 21.7452 74.2686 21.7452H76.1049C77.2969 21.7452 77.8928 21.1493 77.8928 19.9573V18.7492C77.8928 17.525 77.2969 16.913 76.1049 16.913H74.2686ZM71.8525 9.66455C71.8525 10.3089 72.0941 10.8726 72.5773 11.3558C73.0606 11.8391 73.6243 12.0807 74.2686 12.0807H75.4767C76.1532 12.0807 76.7331 11.8391 77.2163 11.3558C77.6673 10.8726 77.8928 10.3089 77.8928 9.66455V8.45648C77.8928 7.77996 77.6673 7.20009 77.2163 6.71686C76.7331 6.26585 76.1532 6.04034 75.4767 6.04034H74.2686C73.6243 6.04034 73.0606 6.26585 72.5773 6.71686C72.0941 7.20009 71.8525 7.77996 71.8525 8.45648V9.66455Z" fill="#333333"/>
<path d="M51.8911 12.5639C51.9233 11.5008 52.5193 10.937 53.679 10.8726H55.5153C55.8696 10.8726 56.2079 10.9532 56.5301 11.1142C56.7878 10.9854 57.0133 10.8243 57.2066 10.631C57.6898 10.1478 57.9314 9.5679 57.9314 8.89139V7.68332C57.5448 6.62022 56.7394 6.07256 55.5153 6.04034H53.679C52.3582 6.07256 51.7622 4.86449 51.8911 2.41614C51.8911 1.73962 52.1166 1.17585 52.5676 0.72484C53.0508 0.241612 53.6307 0 54.3072 0H55.5153C56.1596 0 56.7233 0.241612 57.2066 0.72484C57.6898 1.17585 57.9314 1.73962 57.9314 2.41614V3.09265C57.9636 3.67253 58.1891 4.17186 58.6079 4.59066C59.0589 5.04167 59.6388 5.26718 60.3475 5.26718H61.5556C62.1999 5.26718 62.7637 5.50879 63.2469 5.99202C63.7301 6.47525 63.9718 7.03901 63.9718 7.68332V8.89139C63.9718 9.5679 63.7301 10.1478 63.2469 10.631C62.7637 11.082 62.1999 11.3075 61.5556 11.3075H60.3475C59.671 11.3075 59.0912 11.5491 58.6079 12.0324C58.1891 12.4834 57.9636 12.9988 57.9314 13.5787C57.9636 14.1263 58.1891 14.6096 58.6079 15.0284C59.0589 15.4794 59.6388 15.7049 60.3475 15.7049H61.5556C62.1999 15.7049 62.7637 15.9465 63.2469 16.4297C63.7301 16.913 63.9718 17.4767 63.9718 18.121V19.3291C63.9718 20.0056 63.7301 20.5855 63.2469 21.0687C62.7637 21.5197 62.1999 21.7452 61.5556 21.7452H60.3475C59.671 21.7452 59.0912 21.9868 58.6079 22.4701C58.1569 22.9533 57.9314 23.501 57.9314 24.113V25.3694C57.9314 26.046 57.6898 26.6258 57.2066 27.1091C56.7233 27.5601 56.1596 27.7856 55.5153 27.7856H54.3072C53.6307 27.7856 53.0508 27.5601 52.5676 27.1091C52.1166 26.6258 51.8911 26.046 51.8911 25.3694V24.0164C51.9877 22.5023 52.7931 21.7452 54.3072 21.7452H55.5153C55.8052 21.7452 56.079 21.6969 56.3368 21.6003C56.6589 21.5036 56.9488 21.3264 57.2066 21.0687C57.6898 20.5855 57.9314 20.0056 57.9314 19.3291V18.121C57.9314 17.4767 57.6898 16.913 57.2066 16.4297C57.0133 16.2364 56.82 16.0915 56.6267 15.9948C56.3046 15.8015 55.9341 15.7049 55.5153 15.7049H54.3072C53.0508 15.7049 52.2454 15.1733 51.8911 14.1102V12.5639Z" fill="#333333"/>
<path d="M41.613 10.8726C42.2896 10.8726 42.8694 11.0981 43.3527 11.5491C43.8037 12.0324 44.0292 12.6122 44.0292 13.2888V14.4968C44.0292 15.1411 43.8037 15.7049 43.3527 16.1881C42.8694 16.6714 42.2896 16.913 41.613 16.913H29.5324C28.8881 16.913 28.3243 16.6714 27.8411 16.1881C27.3578 15.7049 27.1162 15.1411 27.1162 14.4968V13.2888C27.1162 12.6122 27.3578 12.0324 27.8411 11.5491C28.3243 11.0981 28.8881 10.8726 29.5324 10.8726H41.613Z" fill="#333333"/>
<path d="M5.9437 9.03635V2.41614C5.9437 1.73962 6.18531 1.15975 6.66854 0.676519C7.15177 0.225507 7.71553 1.3918e-06 8.35983 1.3918e-06H17.4445C18.0888 1.3918e-06 18.6526 0.225507 19.1358 0.676519C19.619 1.15975 19.8606 1.73962 19.8606 2.41614V15.7049C19.8606 16.3492 19.619 16.913 19.1358 17.3962C18.6526 17.8794 18.0888 18.121 17.4445 18.121H16.2364C15.5599 18.121 14.9801 17.8794 14.4968 17.3962C14.0458 16.913 13.8203 16.3492 13.8203 15.7049V14.4968C13.8203 13.8203 13.5787 13.2404 13.0955 12.7572C12.6122 12.3062 12.0485 12.0807 11.4042 12.0807H8.64977C7.77996 12.1129 7.13566 12.3384 6.71686 12.7572C6.26585 13.2404 6.04034 13.8364 6.04034 14.5451V15.6566C6.04034 16.3009 5.79873 16.8646 5.3155 17.3479C4.83227 17.8311 4.26851 18.0727 3.62421 18.0727H2.41614C1.73962 18.0727 1.15975 17.8311 0.676518 17.3479C0.225506 16.8646 0 16.3009 0 15.6566V14.4485C0 13.772 0.225506 13.1921 0.676518 12.7089C1.15975 12.2579 1.73962 12.0324 2.41614 12.0324H3.62421C4.26851 12.0324 4.83227 11.7908 5.3155 11.3075C5.79873 10.8243 6.00813 10.0672 5.9437 9.03635Z" fill="#333333"/>
</svg>
