<svg width="24" height="24" viewBox="0 0 24 24" fill="none" xmlns="http://www.w3.org/2000/svg">
<g clip-path="url(#clip0_18_244)">
<path d="M22.9998 16.0003C22.7346 16.0003 22.4803 16.1057 22.2927 16.2932C22.1052 16.4807 21.9998 16.7351 21.9998 17.0003V19.0003C21.9998 19.796 21.6838 20.559 21.1212 21.1216C20.5586 21.6842 19.7955 22.0003 18.9998 22.0003H16.9998C16.7346 22.0003 16.4803 22.1057 16.2927 22.2932C16.1052 22.4807 15.9998 22.7351 15.9998 23.0003C15.9998 23.2655 16.1052 23.5199 16.2927 23.7074C16.4803 23.8949 16.7346 24.0003 16.9998 24.0003H18.9998C20.3254 23.9987 21.5963 23.4714 22.5336 22.5341C23.471 21.5968 23.9982 20.3259 23.9998 19.0003V17.0003C23.9998 16.7351 23.8945 16.4807 23.7069 16.2932C23.5194 16.1057 23.265 16.0003 22.9998 16.0003Z" fill="white"/>
<path d="M1 8C1.26522 8 1.51957 7.89464 1.70711 7.70711C1.89464 7.51957 2 7.26522 2 7V5C2 4.20435 2.31607 3.44129 2.87868 2.87868C3.44129 2.31607 4.20435 2 5 2H7C7.26522 2 7.51957 1.89464 7.70711 1.70711C7.89464 1.51957 8 1.26522 8 1C8 0.734784 7.89464 0.48043 7.70711 0.292893C7.51957 0.105357 7.26522 0 7 0L5 0C3.67441 0.00158786 2.40356 0.528882 1.46622 1.46622C0.528882 2.40356 0.00158786 3.67441 0 5L0 7C0 7.26522 0.105357 7.51957 0.292893 7.70711C0.48043 7.89464 0.734784 8 1 8Z" fill="white"/>
<path d="M6.99999 22.0003H4.99999C4.20434 22.0003 3.44128 21.6842 2.87867 21.1216C2.31606 20.559 1.99999 19.796 1.99999 19.0003V17.0003C1.99999 16.7351 1.89464 16.4807 1.7071 16.2932C1.51956 16.1057 1.26521 16.0003 0.999992 16.0003C0.734776 16.0003 0.480422 16.1057 0.292886 16.2932C0.105349 16.4807 -7.62939e-06 16.7351 -7.62939e-06 17.0003L-7.62939e-06 19.0003C0.00158023 20.3259 0.528874 21.5968 1.46621 22.5341C2.40355 23.4714 3.6744 23.9987 4.99999 24.0003H6.99999C7.26521 24.0003 7.51956 23.8949 7.7071 23.7074C7.89464 23.5199 7.99999 23.2655 7.99999 23.0003C7.99999 22.7351 7.89464 22.4807 7.7071 22.2932C7.51956 22.1057 7.26521 22.0003 6.99999 22.0003Z" fill="white"/>
<path d="M18.9998 0H16.9998C16.7346 0 16.4803 0.105357 16.2927 0.292893C16.1052 0.48043 15.9998 0.734784 15.9998 1C15.9998 1.26522 16.1052 1.51957 16.2927 1.70711C16.4803 1.89464 16.7346 2 16.9998 2H18.9998C19.7955 2 20.5586 2.31607 21.1212 2.87868C21.6838 3.44129 21.9998 4.20435 21.9998 5V7C21.9998 7.26522 22.1052 7.51957 22.2927 7.70711C22.4803 7.89464 22.7346 8 22.9998 8C23.265 8 23.5194 7.89464 23.7069 7.70711C23.8945 7.51957 23.9998 7.26522 23.9998 7V5C23.9982 3.67441 23.471 2.40356 22.5336 1.46622C21.5963 0.528882 20.3254 0.00158786 18.9998 0V0Z" fill="white"/>
<path d="M12.0001 11C12.7913 11 13.5646 10.7654 14.2224 10.3258C14.8802 9.88631 15.3929 9.26159 15.6957 8.53069C15.9984 7.79979 16.0776 6.99552 15.9233 6.21959C15.7689 5.44367 15.388 4.73094 14.8286 4.17153C14.2692 3.61212 13.5564 3.23116 12.7805 3.07681C12.0046 2.92247 11.2003 3.00169 10.4694 3.30444C9.73851 3.60719 9.11379 4.11988 8.67427 4.77767C8.23474 5.43547 8.00014 6.20883 8.00014 6.99996C8.00014 8.06082 8.42157 9.07824 9.17172 9.82838C9.92186 10.5785 10.9393 11 12.0001 11ZM12.0001 4.99996C12.3957 4.99996 12.7824 5.11725 13.1113 5.33702C13.4402 5.55678 13.6965 5.86914 13.8479 6.23459C13.9993 6.60004 14.0389 7.00217 13.9617 7.39014C13.8845 7.7781 13.6941 8.13446 13.4144 8.41417C13.1347 8.69387 12.7783 8.88436 12.3903 8.96153C12.0024 9.0387 11.6002 8.99909 11.2348 8.84772C10.8693 8.69634 10.557 8.43999 10.3372 8.1111C10.1174 7.7822 10.0001 7.39552 10.0001 6.99996C10.0001 6.46952 10.2109 5.96081 10.5859 5.58574C10.961 5.21067 11.4697 4.99996 12.0001 4.99996Z" fill="white"/>
<path d="M18.0002 20.0003C18.2654 20.0003 18.5197 19.895 18.7073 19.7074C18.8948 19.5199 19.0002 19.2655 19.0002 19.0003C18.9986 17.4095 18.3659 15.8843 17.241 14.7594C16.1162 13.6346 14.591 13.0019 13.0002 13.0003H11.0002C9.40934 13.0019 7.88414 13.6346 6.75927 14.7594C5.63439 15.8843 5.00174 17.4095 5.00015 19.0003C5.00015 19.2655 5.10551 19.5199 5.29305 19.7074C5.48058 19.895 5.73494 20.0003 6.00015 20.0003C6.26537 20.0003 6.51972 19.895 6.70726 19.7074C6.8948 19.5199 7.00015 19.2655 7.00015 19.0003C7.00015 17.9395 7.42158 16.922 8.17173 16.1719C8.92187 15.4217 9.93929 15.0003 11.0002 15.0003H13.0002C14.061 15.0003 15.0784 15.4217 15.8286 16.1719C16.5787 16.922 17.0002 17.9395 17.0002 19.0003C17.0002 19.2655 17.1055 19.5199 17.293 19.7074C17.4806 19.895 17.7349 20.0003 18.0002 20.0003Z" fill="white"/>
</g>
<defs>
<clipPath id="clip0_18_244">
<rect width="24" height="24" fill="white"/>
</clipPath>
</defs>
</svg>
